<?xml version="1.0" standalone="no"?>
<!DOCTYPE svg PUBLIC "-//W3C//DTD SVG 20010904//EN"
 "http://www.w3.org/TR/2001/REC-SVG-20010904/DTD/svg10.dtd">
<svg version="1.0" xmlns="http://www.w3.org/2000/svg"
 width="266.000000pt" height="262.000000pt" viewBox="0 0 266.000000 262.000000"
 preserveAspectRatio="xMidYMid meet">

<g transform="translate(0.000000,262.000000) scale(0.100000,-0.100000)"
fill="#000000" stroke="none">
<path d="M2156 2421 c-3 -5 -36 -17 -73 -27 -45 -11 -77 -27 -93 -44 -14 -15
-41 -35 -60 -46 -109 -59 -147 -164 -89 -246 10 -15 19 -33 19 -40 1 -19 39
-63 84 -96 30 -22 44 -44 62 -92 14 -39 21 -75 17 -92 -9 -46 -120 -150 -184
-172 -43 -16 -76 -40 -160 -122 -127 -122 -280 -237 -448 -338 -11 -7 -12 3
-7 60 22 217 81 535 112 610 8 19 14 35 14 38 0 6 -138 -22 -159 -33 -10 -6
-27 -31 -37 -56 -13 -35 -21 -44 -33 -39 -157 69 -286 68 -421 -2 -202 -105
-359 -352 -360 -564 0 -185 144 -279 323 -210 118 45 278 189 360 322 37 61
37 61 36 27 0 -19 -6 -90 -12 -159 l-12 -125 -150 -84 c-82 -46 -193 -107
-245 -137 -187 -104 -262 -177 -276 -271 -15 -98 50 -192 155 -226 101 -32
261 -18 364 34 112 56 227 180 267 288 20 53 44 189 55 322 l6 67 87 58 c189
125 375 275 471 380 32 35 65 64 72 64 41 2 98 36 203 124 88 73 122 108 141
146 39 77 37 85 -55 253 -6 9 -14 25 -18 34 -5 10 -19 20 -30 23 -21 5 -38 29
-79 107 -28 54 -8 82 99 134 50 24 97 54 106 67 14 21 13 25 -8 47 -25 27 -35
30 -44 16z m-1196 -793 c43 -13 97 -47 127 -80 l23 -24 -69 -105 c-263 -401
-545 -520 -517 -218 11 125 70 252 160 347 90 95 159 115 276 80z m66 -855
c-20 -250 -96 -389 -235 -430 -100 -29 -211 1 -240 65 -47 103 48 210 322 366
84 47 154 86 156 86 2 0 1 -39 -3 -87z"/>
</g>
</svg>
