<?xml version="1.0" standalone="no"?>
<!DOCTYPE svg PUBLIC "-//W3C//DTD SVG 20010904//EN"
 "http://www.w3.org/TR/2001/REC-SVG-20010904/DTD/svg10.dtd">
<svg version="1.0" xmlns="http://www.w3.org/2000/svg"
 width="637.000000pt" height="262.000000pt" viewBox="0 0 637.000000 262.000000"
 preserveAspectRatio="xMidYMid meet">

<g transform="translate(0.000000,262.000000) scale(0.100000,-0.100000)"
fill="#000000" stroke="none">
<path d="M2156 2421 c-3 -5 -36 -17 -73 -27 -45 -11 -77 -27 -93 -44 -14 -15
-41 -35 -60 -46 -109 -59 -147 -164 -89 -246 10 -15 19 -33 19 -40 1 -19 39
-63 84 -96 30 -22 44 -44 62 -92 14 -39 21 -75 17 -92 -9 -46 -120 -150 -184
-172 -43 -16 -76 -40 -160 -122 -127 -122 -280 -237 -448 -338 -11 -7 -12 3
-7 60 22 217 81 535 112 610 8 19 14 35 14 38 0 6 -138 -22 -159 -33 -10 -6
-27 -31 -37 -56 -13 -35 -21 -44 -33 -39 -157 69 -286 68 -421 -2 -202 -105
-359 -352 -360 -564 0 -185 144 -279 323 -210 118 45 278 189 360 322 37 61
37 61 36 27 0 -19 -6 -90 -12 -159 l-12 -125 -150 -84 c-82 -46 -193 -107
-245 -137 -187 -104 -262 -177 -276 -271 -15 -98 50 -192 155 -226 101 -32
261 -18 364 34 112 56 227 180 267 288 20 53 44 189 55 322 l6 67 87 58 c189
125 375 275 471 380 32 35 65 64 72 64 41 2 98 36 203 124 88 73 122 108 141
146 39 77 37 85 -55 253 -6 9 -14 25 -18 34 -5 10 -19 20 -30 23 -21 5 -38 29
-79 107 -28 54 -8 82 99 134 50 24 97 54 106 67 14 21 13 25 -8 47 -25 27 -35
30 -44 16z m-1196 -793 c43 -13 97 -47 127 -80 l23 -24 -69 -105 c-263 -401
-545 -520 -517 -218 11 125 70 252 160 347 90 95 159 115 276 80z m66 -855
c-20 -250 -96 -389 -235 -430 -100 -29 -211 1 -240 65 -47 103 48 210 322 366
84 47 154 86 156 86 2 0 1 -39 -3 -87z"/>
<path d="M2385 1384 c-61 -13 -106 -30 -202 -76 -40 -19 -143 -109 -137 -119
3 -6 -3 -13 -13 -15 -25 -7 -86 -106 -78 -126 4 -9 0 -18 -8 -21 -22 -8 -41
-105 -25 -124 9 -11 9 -16 -1 -22 -26 -16 14 -216 45 -228 8 -3 14 -13 14 -23
0 -15 88 -100 129 -125 46 -27 228 -23 424 10 83 14 164 25 179 25 53 0 73 40
51 100 -4 8 -5 21 -4 28 1 8 -5 19 -15 26 -16 12 -16 15 0 46 10 22 16 58 16
107 l0 73 -99 0 c-79 0 -100 -3 -105 -15 -5 -13 4 -15 52 -13 48 2 62 -2 80
-20 12 -12 28 -22 35 -23 6 0 2 -4 -11 -10 -21 -8 -23 -14 -20 -77 2 -43 10
-76 21 -92 16 -23 16 -25 0 -34 -15 -8 -15 -10 1 -22 16 -11 16 -13 -3 -19
-12 -3 -21 -10 -21 -14 0 -10 -94 -31 -165 -38 -27 -3 -57 -8 -65 -13 -8 -4
-57 -7 -108 -7 -51 0 -95 -3 -99 -7 -12 -12 -29 -6 -79 27 -70 45 -117 87
-131 120 -7 15 -17 27 -22 27 -5 0 -11 17 -13 37 -2 30 -8 38 -28 43 l-25 6
23 8 c21 7 30 30 15 39 -5 3 -8 29 -7 59 3 131 70 270 177 364 55 48 195 114
243 114 22 0 44 4 50 9 5 6 39 4 88 -5 62 -12 85 -13 107 -3 39 16 36 25 -8
33 -58 9 -113 7 -113 -4 0 -7 -6 -7 -19 0 -25 13 -39 12 -126 -6z"/>
<path d="M4380 1392 c-128 -7 -319 -81 -388 -150 -81 -81 -53 -196 55 -224 84
-22 92 -21 113 3 19 23 20 23 31 5 9 -15 13 -16 20 -5 7 11 13 10 27 -8 15
-19 27 -21 97 -22 57 0 102 -7 155 -24 41 -13 88 -25 104 -26 37 -1 48 -11 13
-11 -35 0 -40 -13 -23 -54 12 -29 12 -43 2 -83 -7 -27 -11 -58 -10 -71 2 -12
0 -22 -5 -22 -5 0 -18 -19 -29 -43 -23 -49 -76 -100 -125 -120 -219 -92 -534
-15 -555 135 -6 52 -16 55 -42 13 l-22 -36 28 -37 c46 -60 114 -107 114 -79 1
7 8 3 18 -8 19 -22 86 -47 107 -39 7 3 16 1 20 -5 9 -15 198 -13 265 3 67 16
135 50 143 70 4 9 12 14 19 11 21 -7 109 108 134 173 26 69 30 212 7 220 -7 2
-13 10 -13 17 0 34 -152 91 -197 74 -19 -7 -28 -6 -33 2 -5 7 -32 10 -79 7
-39 -2 -72 0 -73 4 -4 10 -88 13 -116 4 -15 -5 -30 -1 -48 13 -15 12 -33 21
-40 21 -19 0 -54 49 -54 76 0 37 44 78 127 120 43 21 82 39 88 39 26 2 132 27
147 35 25 14 44 12 58 -5 19 -23 98 -31 118 -12 14 15 13 17 -9 25 -32 12 -93
18 -149 14z"/>
<path d="M2942 1189 c-19 -21 -32 -43 -30 -49 5 -16 83 48 83 68 0 28 -19 21
-53 -19z"/>
<path d="M2929 981 c-20 -16 -24 -26 -21 -55 3 -22 10 -36 18 -36 8 0 14 -4
14 -10 0 -5 -5 -10 -11 -10 -6 0 -10 -23 -9 -57 1 -32 -3 -86 -7 -120 -5 -35
-5 -63 -1 -63 5 0 20 7 33 16 24 16 24 18 24 167 -1 84 1 158 3 166 5 22 -17
23 -43 2z"/>
<path d="M5420 970 c-124 -68 -134 -142 -23 -165 18 -3 41 -1 52 5 12 6 21 7
21 2 0 -5 17 -9 38 -8 44 1 61 -16 62 -62 0 -77 -104 -123 -181 -80 -22 12
-39 29 -39 39 0 28 -20 33 -41 12 -27 -26 -16 -48 37 -73 82 -40 216 -6 267
67 26 37 27 45 18 79 -15 55 -51 73 -141 71 -59 -2 -75 2 -97 19 l-27 21 27
26 c27 25 103 42 113 25 9 -15 52 -8 75 11 13 11 22 21 19 24 -3 2 -32 7 -65
11 -54 5 -65 3 -115 -24z"/>
<path d="M3268 975 c-147 -54 -217 -180 -156 -282 44 -75 207 -93 313 -35 60
34 88 70 91 121 1 21 4 43 8 49 3 6 4 16 2 24 -2 7 -7 25 -10 41 -4 15 -13 27
-22 27 -8 0 -17 7 -21 15 -8 21 -58 46 -77 39 -9 -3 -16 -1 -16 5 0 15 -66 13
-112 -4z m114 -26 c74 -30 109 -157 62 -230 -28 -45 -92 -73 -144 -64 -69 11
-120 30 -120 42 0 14 -20 55 -32 63 -24 19 25 125 76 163 62 48 90 53 158 26z"/>
<path d="M4948 980 c-54 -16 -125 -64 -153 -104 -24 -33 -30 -52 -32 -104 -3
-59 -1 -64 31 -95 93 -90 321 -63 382 46 15 27 21 57 22 105 1 64 0 67 -35
100 -46 42 -71 55 -88 48 -8 -3 -17 -1 -20 4 -7 12 -69 12 -107 0z m104 -28
c7 -7 16 -12 21 -12 14 0 51 -50 62 -84 27 -80 -2 -155 -74 -188 -46 -21 -82
-20 -166 4 -33 9 -44 19 -59 52 -25 54 -27 74 -9 119 35 88 177 157 225 109z"/>
<path d="M5860 976 c-57 -17 -100 -34 -100 -41 0 -3 11 -10 25 -15 20 -8 33
-4 68 19 37 26 47 28 85 21 23 -4 50 -14 60 -22 9 -8 25 -18 36 -22 15 -5 16
-9 6 -21 -6 -8 -9 -19 -6 -24 10 -15 -23 -28 -88 -34 -70 -7 -181 -59 -209
-98 -14 -20 -16 -31 -8 -52 21 -55 106 -71 226 -42 75 18 75 18 75 0 0 -19 13
-19 51 1 22 11 29 20 24 32 -4 9 -9 58 -11 109 -5 109 -22 169 -47 165 -10 -2
-16 3 -15 9 6 26 -100 35 -172 15z m148 -166 c32 0 32 -1 32 -48 0 -55 -17
-75 -77 -91 -74 -20 -101 -21 -129 -6 -15 7 -31 12 -35 9 -4 -2 -7 9 -7 26 1
17 -2 33 -5 36 -8 9 42 48 78 62 44 16 68 21 90 16 11 -2 35 -4 53 -4z"/>
</g>
</svg>
